<svg xmlns="http://www.w3.org/2000/svg">
    <symbol id="open-avenues-logo" viewBox="0 0 768.37093 140.97699">
      <title>Open Avenues</title><path d="M26.56 139.01C5.631 132.326-5.17 110.446 2.434 90.136c3.39-9.053 8.387-14.624 17.514-19.526 6.98-3.748 8.846-4.195 17.674-4.231 8.345-.034 10.95.49 16.855 3.39 13.548 6.653 21.178 18.752 21.178 33.585 0 10.226-2.811 17.556-9.626 25.099-9.293 10.286-26.178 14.803-39.469 10.557zm21.282-9.812c6.389-2.668 11.183-7.508 14.602-14.74 3.696-7.817 3.696-14.39 0-22.209-7.497-15.857-23.505-21.216-37.776-12.647-13.559 8.142-17.584 25.093-9.183 38.68 6.695 10.83 21.006 15.658 32.358 10.916zm357.46-23.148c-8.143-19.06-14.992-35.41-15.219-36.333-.31-1.262.904-1.583 4.893-1.294l5.307.385 7.786 18.507c4.282 10.179 8.54 20.707 9.464 23.396 2.193 6.389 3.5 6.63 5.282.974.802-2.546 5.167-13.374 9.7-24.062l8.242-19.432h10.72l-4.355 10.18c-10.057 23.505-26.682 62.01-26.841 62.166-.095.094-6.835-15.426-14.978-34.486zm146.21 9.035c-14.59-14.214-26.666-25.862-26.835-25.882-.17-.028-.308 11.067-.308 24.639v24.676h-9.87V65.434l22.11 21.169c12.16 11.643 24.095 23.367 26.523 26.054 2.428 2.687 4.693 4.885 5.034 4.885.34 0 .62-11.104.62-24.676V68.19h9.976l-.173 36.397c-.095 20.02-.258 36.385-.361 36.37-.104 0-12.125-11.658-26.715-25.873zm60.457 23.482c-8.294-2.857-12.962-8.029-14.744-16.338-.713-3.323-1.296-16.842-1.296-30.041V68.189h9.655L606 93.848c.46 28.349.86 29.93 8.812 34.924 3.119 1.958 5.55 2.385 11.633 2.043 6.481-.364 8.276-.994 11.42-4.007 2.053-1.966 4.28-5.549 4.95-7.962.671-2.414 1.223-14.8 1.227-27.523l.009-23.134h9.87l-.009 25.6c-.003 14.777-.58 27.665-1.36 30.48-3.78 13.617-22.949 20.37-40.582 14.296zm-377.61-21.764c-13.165-12.621-24.676-24.004-25.58-25.293-.903-1.29-2.13-2.345-2.726-2.345-.596 0-.98 11.104-.855 24.676l.228 24.676h-9.254v-35.85c0-35.458.026-35.832 2.438-34.143 1.34.939 13.267 12.27 26.504 25.18 13.236 12.91 24.354 23.186 24.706 22.834.352-.352.64-11.374.64-24.494V68.19h8.637v35.78c0 19.679-.18 35.78-.4 35.78s-11.172-10.326-24.338-22.947zm-146.76-13.449V68.19l14.497.003c16.75.002 21.51 1.63 25.189 8.616 3.038 5.769 2.967 15.507-.15 20.618-3.909 6.41-7.785 8.173-19.31 8.778l-10.356.543v31.77H87.6v-35.164zm27.939-8.477c2.556-2.199 3.4-4.043 3.4-7.43 0-6.48-3.682-9.68-12.214-10.62-3.77-.415-7.117-.493-7.437-.173-.32.32-.583 5.21-.583 10.865v10.282h6.717c5.288 0 7.44-.622 10.117-2.925zm26.349 8.477V68.19h39.482v7.325l-14.497.347-14.497.348v19.74l14.497.348 14.497.348v8.558h-29.7l.353 12.03.353 12.03 14.497.348 14.497.347v8.559h-39.482v-35.164zm318.32 0V68.19h39.482v7.322l-13.88.349-13.88.349v19.74l13.88.35 13.88.348v8.556h-28.378v24.676h28.378v8.637h-39.482v-35.164zm211.12 0l-.046-35.164h39.388v7.322l-13.88.349-13.88.349v19.74l13.88.35 13.88.348v8.556h-28.378v24.676h28.378v8.637h-39.298l-.045-35.164zm64.044 33.07c-4.659-2.414-9.895-9.236-9.895-12.891 0-1.407 1.537-2.926 4.01-3.962 3.87-1.62 4.062-1.56 5.503 1.72 4.498 10.235 17.592 11.462 22.071 2.069 1.778-3.728 1.782-4.535.043-8.699-1.667-3.988-3.264-5.208-12.197-9.316-11.625-5.345-16.324-9.989-17.57-17.361-1.073-6.352 2.07-13.129 7.885-17.002 8.484-5.65 22.68-2.923 28.133 5.406 1.594 2.433 1.428 2.864-2.058 5.346l-3.792 2.7-3.554-3.804c-6.434-6.888-16.135-4.224-16.135 4.43 0 4.715 2.043 6.503 13.983 12.235 11.572 5.556 15.77 10.324 16.512 18.757.605 6.87-3.165 15.284-8.634 19.27-4.862 3.544-18.405 4.157-24.304 1.101zm-456.64-5.618c.587-1.527 9.67-22.486 20.184-46.577a113329 113329 0 0 0 28.124-64.486c4.954-11.377 9.422-20.26 9.929-19.74.506.519 5.474 11.493 11.04 24.386 5.565 12.894 10.279 23.63 10.475 23.86.196.229 8.312-3.491 18.036-8.267 9.723-4.775 24.342-10.969 32.485-13.764 29.92-10.27 67.574-17.468 89.415-17.09l9.29.158-9.254 1.063c-30.327 3.485-68.694 15.057-97.859 29.516-16.165 8.014-35.392 20.267-35.392 22.555 0 .813 6.893 17.181 15.317 36.373l15.317 34.896-8.039-.362-8.038-.362-12.001-28.378c-6.601-15.608-12.42-29.488-12.932-30.846-.847-2.244-1.397-1.957-6.073 3.171-11.024 12.092-14.79 26.507-9.58 36.668 3.994 7.788 10.146 12.324 23.18 17.091l8.403 3.074-9.12-.724c-20.19-1.603-36.5-7.954-43.766-17.042-2.951-3.69-3.824-6.152-4.245-11.971-.449-6.208.029-8.516 3.13-15.144 3.723-7.957 13.914-19.497 24.965-28.273l5.51-4.376-4.82-11.93c-2.651-6.56-5.348-11.751-5.993-11.537-.645.215-10.63 22.99-22.193 50.61l-21.02 50.22h-7.77c-7.552 0-7.74-.078-6.704-2.775z"/>
    </symbol></svg>