<svg id="svg3503" xmlns:rdf="http://www.w3.org/1999/02/22-rdf-syntax-ns#" xmlns="http://www.w3.org/2000/svg" viewBox="0 0 768.37093 140.97699" height="140.98" width="768.37" version="1.1" xmlns:cc="http://creativecommons.org/ns#" xmlns:dc="http://purl.org/dc/elements/1.1/">
  <title>Open Avenues</title>
  <description>Open Avenues Logo</description>
 <g id="layer1" transform="translate(0 -911.39)">
  <path id="path3404" d="m26.56 1050.4c-20.929-6.6845-31.73-28.564-24.126-48.874 3.3895-9.0529 8.3867-14.624 17.514-19.526 6.9801-3.7485 8.8457-4.1953 17.674-4.231 8.3454-0.034 10.95 0.48981 16.855 3.3896 13.548 6.6531 21.178 18.752 21.178 33.585 0 10.226-2.8114 17.556-9.6258 25.099-9.2931 10.286-26.178 14.803-39.469 10.557zm21.282-9.8118c6.3886-2.6686 11.183-7.5084 14.602-14.74 3.6957-7.8175 3.6957-14.391 0-22.209-7.4966-15.857-23.505-21.216-37.776-12.647-13.559 8.1421-17.584 25.093-9.1834 38.68 6.6958 10.83 21.006 15.658 32.358 10.916zm357.46-23.148c-8.1432-19.06-14.992-35.41-15.219-36.333-0.31086-1.2618 0.90441-1.583 4.893-1.2941l5.3066 0.38443 7.7861 18.507c4.2823 10.179 8.5411 20.707 9.4639 23.396 2.1931 6.3894 3.5003 6.6305 5.2825 0.9746 0.80226-2.546 5.1674-13.374 9.7002-24.062l8.2415-19.432h10.72l-4.3549 10.179c-10.057 23.506-26.682 62.011-26.841 62.167-0.0949 0.094-6.835-15.426-14.978-34.486zm146.21 9.0348c-14.59-14.214-26.666-25.862-26.835-25.882-0.16969-0.028-0.30847 11.067-0.30847 24.639v24.676h-9.8704v-73.084l22.11 21.169c12.161 11.643 24.096 23.367 26.524 26.054 2.4274 2.6867 4.6925 4.8851 5.0335 4.8851 0.34106 0 0.62013-11.104 0.62013-24.676v-24.676h9.9758l-0.17281 36.397c-0.0949 20.019-0.25751 36.385-0.36108 36.37-0.1034 0-12.125-11.658-26.715-25.873zm60.457 23.482c-8.2943-2.8568-12.962-8.0288-14.744-16.338-0.7127-3.3233-1.2958-16.842-1.2958-30.041v-23.999h9.6549l0.41627 25.659c0.4599 28.349 0.85891 29.93 8.8115 34.924 3.119 1.9584 5.5497 2.3853 11.633 2.0431 6.4814-0.3646 8.2762-0.9944 11.421-4.0069 2.0518-1.9658 4.2793-5.5489 4.9498-7.9625 0.67053-2.4137 1.2222-14.799 1.226-27.523l0.009-23.134h9.8704l-0.009 25.601c-0.003 14.776-0.57945 27.664-1.361 30.479-3.78 13.617-22.948 20.37-40.581 14.296zm-377.61-21.764c-13.165-12.621-24.676-24.004-25.58-25.293-0.9034-1.2899-2.13-2.3451-2.7259-2.3451-0.59585 0-0.98079 11.104-0.85538 24.676l0.22805 24.676h-9.2536v-35.85c0-35.458 0.0255-35.832 2.4378-34.143 1.3408 0.93912 13.267 12.271 26.504 25.181 13.236 12.91 24.354 23.185 24.706 22.833 0.35211-0.3521 0.64019-11.374 0.64019-24.494v-23.854h8.6368v35.78c0 19.679-0.18018 35.781-0.4003 35.781s-11.172-10.327-24.338-22.948zm-146.76-13.449v-35.164l14.497 0.003c16.75 0.002 21.51 1.6304 25.189 8.6155 3.0378 5.769 2.9672 15.507-0.14958 20.618-3.9092 6.4112-7.7851 8.1733-19.31 8.7781l-10.356 0.5437v31.77h-9.8705v-35.164zm27.939-8.477c2.5563-2.1986 3.4001-4.0429 3.4001-7.4302 0-6.4795-3.6817-9.6807-12.214-10.62-3.77-0.41503-7.1169-0.49236-7.4374-0.17281-0.32057 0.3204-0.58285 5.2095-0.58285 10.865v10.282h6.7172c5.2882 0 7.4404-0.6221 10.117-2.9247zm26.349 8.477v-35.164h39.482v7.3245l-14.497 0.3476-14.497 0.3476v19.741l14.497 0.3476 14.497 0.3476v8.5583h-29.7l0.35313 12.03 0.35312 12.03 14.497 0.3476 14.497 0.3476v8.5583h-39.482v-35.164zm318.32 0v-35.164h39.482v7.322l-13.88 0.34901-13.88 0.34874v19.741l13.88 0.3487 13.88 0.349v8.5558h-28.378v24.676h28.378v8.6365h-39.482v-35.164zm211.12 0-0.0456-35.164h39.388v7.322l-13.88 0.34901-13.88 0.34874v19.741l13.88 0.3487 13.88 0.349v8.5558h-28.378v24.676h28.378v8.6365h-39.298l-0.0456-35.164zm64.044 33.07c-4.6585-2.4137-9.8951-9.2357-9.8951-12.891 0-1.4071 1.537-2.9256 4.0099-3.9616 3.8704-1.6212 4.0619-1.5612 5.5036 1.7196 4.4973 10.235 17.592 11.462 22.071 2.0689 1.7779-3.7284 1.7818-4.5352 0.0422-8.6988-1.6664-3.9885-3.2638-5.2083-12.197-9.3161-11.625-5.3455-16.324-9.9887-17.569-17.361-1.0731-6.3517 2.0697-13.129 7.8848-17.002 8.4838-5.6508 22.679-2.923 28.133 5.4061 1.5932 2.4326 1.4272 2.8638-2.0588 5.3463l-3.7918 2.6998-3.5535-3.8041c-6.4343-6.8877-16.135-4.2242-16.135 4.4301 0 4.7151 2.0424 6.5024 13.983 12.235 11.572 5.556 15.77 10.324 16.512 18.757 0.60489 6.8698-3.1652 15.284-8.6345 19.27-4.8617 3.5434-18.405 4.1571-24.304 1.1012zm-456.64-5.6177c0.58676-1.527 9.6694-22.486 20.184-46.577 10.514-24.09 23.17-53.109 28.124-64.486 4.9542-11.377 9.4222-20.261 9.9287-19.741 0.50658 0.51956 5.4745 11.494 11.04 24.387 5.5653 12.894 10.279 23.63 10.475 23.859 0.19633 0.22947 8.3125-3.4907 18.036-8.2659 9.7237-4.7752 24.342-10.969 32.485-13.764 29.921-10.27 67.574-17.468 89.415-17.091l9.2904 0.15864-9.2536 1.0632c-30.327 3.4848-68.694 15.057-97.859 29.516-16.165 8.0141-35.392 20.267-35.392 22.555 0 0.81277 6.8927 17.181 15.317 36.373l15.317 34.896-8.039-0.3623-8.039-0.3624-12.001-28.378c-6.6008-15.608-12.42-29.488-12.932-30.846-0.84662-2.244-1.3966-1.9567-6.0724 3.1718-11.024 12.092-14.79 26.507-9.5799 36.668 3.9936 7.7875 10.146 12.324 23.18 17.091l8.4025 3.0734-9.1189-0.7238c-20.19-1.6028-36.501-7.9537-43.767-17.042-2.9508-3.6904-3.8236-6.1517-4.2444-11.971-0.44907-6.2083 0.0283-8.516 3.1295-15.144 3.7234-7.9568 13.914-19.497 24.965-28.273l5.5109-4.376-4.8208-11.929c-2.6514-6.5605-5.3482-11.752-5.9929-11.538-0.64469 0.21531-10.631 22.99-22.193 50.611l-21.021 50.22h-7.7698c-7.5511 0-7.7398-0.079-6.7029-2.776z"/>
 </g>
</svg>
